<?xml version="1.0" encoding="utf-8"?>
<!-- Generator: Adobe Illustrator 24.1.1, SVG Export Plug-In . SVG Version: 6.00 Build 0)  -->
<!DOCTYPE svg PUBLIC "-//W3C//DTD SVG 1.1//EN" "http://www.w3.org/Graphics/SVG/1.1/DTD/svg11.dtd" [
	<!ENTITY st0 "fill:#081004;">
	<!ENTITY st1 "fill:#3F7D20;">
]>
<svg version="1.1" id="Layer_1" xmlns="http://www.w3.org/2000/svg" xmlns:xlink="http://www.w3.org/1999/xlink" x="0px" y="0px"
	 viewBox="0 0 200 200" style="enable-background:new 0 0 200 200;" xml:space="preserve">
<path style="&st0;" d="M94.88,108.74c0,0,22.79-13.73,30.98-16.12c-22.23,15-30.56,54.18-30.56,54.18s-7.22-38.07-31.4-51.68"/>
<path style="&st0;" d="M132.85,117.56c0,0,17.75-11.9,24.24-14.13c-17.26,12.9-22.43,44.67-22.43,44.67s-7.27-30.27-27.2-40.26"/>
<path style="&st0;" d="M56.44,120.07c0,0,19.12-9.56,25.84-10.95c-18.75,10.61-27.91,41.46-27.91,41.46s-3.38-30.95-21.88-43.38"/>
<circle style="&st0;" cx="94.88" cy="93.74" r="7.22"/>
<circle style="&st0;" cx="130.72" cy="103.42" r="7.22"/>
<circle style="&st0;" cx="57.38" cy="108.19" r="7.22"/>
<path style="&st1;" d="M88.14,73.5c-5.44-12.12-16.31-2.44-19.45,0.84c-20,18.52-37.68,24.51-32.23,23.94s31.05-5.36,33.95-5.9
	c2.9-0.54,23.97-5.95,21.03-16.91c-11.38,1.37-25.46,14.59-19.43,11.56C78.05,83.99,88.2,76.31,88.14,73.5z"/>
<path style="&st1;" d="M102.76,73.88c-6.36,11.66,7.92,14.47,12.43,14.99c26.84,4.74,42.3,15.2,38.55,11.2
	c-3.75-4-23.04-21.49-25.22-23.48s-19.23-15.5-26.19-6.53c7.97,8.23,27.01,11.47,20.95,8.49C117.21,75.57,104.96,72.13,102.76,73.88
	z"/>
<path style="&st1;" d="M94.31,61.76c13.27,0.66,9.59-13.42,8.1-17.71c-7.39-26.24-4.68-44.7-6.66-39.59
	c-1.97,5.12-9.35,30.09-10.19,32.92c-0.84,2.83-5.6,24.06,5.49,26.42c3.95-10.76-1.41-29.31-1.45-22.56S91.77,60.54,94.31,61.76z"/>
<circle style="&st1;" cx="94.47" cy="69.39" r="4.01"/>
<g>
	<path d="M23.73,178.15l-3.59,3.73v9.93h-3.87v-29.38h3.87v14.53l13.05-14.53h4.68L26.32,175.4l12.47,16.4h-4.64L23.73,178.15z"/>
	<path d="M58.74,182.54l0.56,3.87l0.83-3.49l5.81-20.5h3.27l5.67,20.5l0.81,3.55l0.63-3.96l4.56-20.09h3.89l-7.12,29.38h-3.53
		l-6.05-21.41l-0.46-2.24l-0.46,2.24l-6.27,21.41h-3.53l-7.1-29.38h3.87L58.74,182.54z"/>
	<path d="M113.01,180.89h-7.75c0.05,2.62,0.69,4.63,1.9,6.04c1.21,1.41,2.93,2.11,5.14,2.11c1.56,0,3.03-0.23,4.4-0.69l0.4,3.25
		c-1.61,0.41-3.23,0.61-4.84,0.61c-3.34,0-5.96-0.99-7.88-2.96c-1.92-1.97-2.92-4.76-3-8.36H97.8v-2.5h3.59v-2.76H97.8v-2.52h3.59
		c0.13-3.52,1.16-6.25,3.08-8.18c1.92-1.93,4.51-2.9,7.78-2.9c1.43,0,3.05,0.21,4.86,0.62l-0.4,3.25c-1.47-0.47-2.94-0.71-4.42-0.71
		c-2.21,0-3.9,0.68-5.09,2.05c-1.19,1.37-1.83,3.32-1.91,5.86h7.73v2.52h-7.75v2.76h7.75V180.89z"/>
	<path d="M146.59,184.24c0-1.24-0.43-2.28-1.3-3.13c-0.87-0.85-2.33-1.61-4.39-2.3c-2.87-0.87-4.95-2.01-6.26-3.42
		s-1.97-3.19-1.97-5.36c0-2.21,0.64-4.02,1.93-5.43c1.28-1.41,3.05-2.25,5.3-2.52v-4.42h3.01v4.44c2.26,0.31,4.02,1.26,5.28,2.84
		s1.89,3.76,1.89,6.52h-3.71c0-1.9-0.45-3.41-1.35-4.53s-2.12-1.68-3.65-1.68c-1.6,0-2.83,0.42-3.67,1.24
		c-0.85,0.83-1.27,1.98-1.27,3.47c0,1.37,0.45,2.47,1.34,3.28s2.37,1.56,4.42,2.22c2.05,0.67,3.65,1.4,4.8,2.2
		c1.15,0.8,2,1.73,2.54,2.79c0.54,1.06,0.82,2.31,0.82,3.73c0,2.27-0.68,4.1-2.05,5.49c-1.37,1.38-3.28,2.21-5.74,2.46V196h-2.99
		v-3.85c-2.5-0.23-4.46-1.12-5.88-2.67s-2.13-3.66-2.13-6.33h3.73c0,1.87,0.49,3.31,1.47,4.32c0.98,1.01,2.37,1.51,4.18,1.51
		c1.76,0,3.15-0.42,4.16-1.27S146.59,185.71,146.59,184.24z"/>
	<path d="M188.75,178.06c0,2.88-0.48,5.39-1.45,7.54c-0.97,2.15-2.34,3.78-4.12,4.91s-3.85,1.69-6.21,1.69
		c-2.31,0-4.37-0.57-6.15-1.71c-1.79-1.14-3.18-2.76-4.17-4.86c-0.99-2.1-1.5-4.54-1.52-7.31v-2.12c0-2.83,0.49-5.32,1.47-7.49
		c0.98-2.17,2.37-3.82,4.17-4.97c1.8-1.15,3.85-1.73,6.16-1.73c2.35,0,4.43,0.57,6.22,1.71s3.18,2.78,4.15,4.94
		c0.97,2.16,1.45,4.67,1.45,7.54V178.06z M184.9,176.17c0-3.48-0.7-6.16-2.1-8.02c-1.4-1.86-3.36-2.79-5.87-2.79
		c-2.45,0-4.38,0.93-5.78,2.79s-2.13,4.45-2.17,7.76v2.16c0,3.38,0.71,6.03,2.13,7.96c1.42,1.93,3.37,2.9,5.86,2.9
		c2.5,0,4.44-0.91,5.81-2.73c1.37-1.82,2.08-4.44,2.12-7.84V176.17z"/>
</g>
</svg>
