<?xml version="1.0" encoding="utf-8"?>
<!-- Generator: Adobe Illustrator 24.1.1, SVG Export Plug-In . SVG Version: 6.00 Build 0)  -->
<svg version="1.1" id="Layer_1" xmlns="http://www.w3.org/2000/svg" xmlns:xlink="http://www.w3.org/1999/xlink" x="0px" y="0px"
	 viewBox="0 0 500 500" style="enable-background:new 0 0 500 500;" xml:space="preserve">
<g>
	<path style="fill:#CD2027;" d="M15.23,318.15l14.03-54.82c9.85,7.16,19.11,12.86,27.78,17.11c8.67,4.25,16.64,6.92,23.92,7.99
		c5.58,0.82,10.58,0.94,15.01,0.35c4.42-0.59,8.4-1.92,11.93-4c3.53-2.08,6.79-4.88,9.79-8.41l-12.01,33.55l29.9-182.62
		l-53.45-18.29l3.54-24.02l147.75,21.78l-3.22,21.83c-4.41,1.34-9.26,2.67-14.53,3.99c-5.28,1.33-10.83,2.43-16.66,3.31
		l-17.6,119.36c-8.91,60.41-47.33,85.61-115.26,75.59c-7.77-1.14-15.89-2.78-24.38-4.9C33.29,323.85,24.44,321.24,15.23,318.15z
		 M15.23,318.15l13.25-89.89l25.84,3.81l19.14,94.66L15.23,318.15z"/>
	<path style="fill:#CD2027;" d="M330.3,370.18c-32.51-4.79-56.66-15.85-72.45-33.18c-15.79-17.32-21.79-38.84-18-64.56l22-126.52
		l-33.8-15.39l3.54-24.02l127.37,18.78l-3.22,21.83c-4.45,1.57-8.93,2.96-13.44,4.15c-4.52,1.19-10.07,2.3-16.66,3.31l-19.37,131.37
		c-1.65,11.16,1.05,20.61,8.09,28.34c7.04,7.73,17.6,12.63,31.67,14.71c8.97,1.32,17.37,1.14,25.18-0.56
		c7.81-1.7,14.66-4.84,20.54-9.43l25.12-150.23l-29.43-14.75l3.54-24.02l108.08,15.93l-3.22,21.83c-5.42,1.43-10.89,2.8-16.4,4.09
		c-5.52,1.29-11.06,2.27-16.61,2.94l-18.19,123.37c-4.11,27.9-16.2,48.06-36.24,60.47C388.36,371.06,362.33,374.9,330.3,370.18z"/>
</g>
<g>
</g>
<g>
</g>
<g>
</g>
<g>
</g>
<g>
</g>
<g>
</g>
</svg>
