<?xml version="1.0" encoding="UTF-8"?>
<svg xmlns="http://www.w3.org/2000/svg" xmlns:xlink="http://www.w3.org/1999/xlink" xmlns:svgjs="http://svgjs.com/svgjs" version="1.1" width="512" height="512" x="0" y="0" viewBox="0 0 512 512" style="enable-background:new 0 0 512 512" xml:space="preserve" class="">
  <g>
    <path xmlns="http://www.w3.org/2000/svg" d="m512 30.90625v450.1875c0 17.070312-13.835938 30.90625-30.90625 30.90625h-450.1875c-17.070312 0-30.90625-13.835938-30.90625-30.90625v-450.1875c0-17.070312 13.835938-30.90625 30.90625-30.90625h450.1875c17.070312 0 30.90625 13.835938 30.90625 30.90625zm0 0" fill="#900d0f" data-original="#1680f6" style="" class=""/>
    <path xmlns="http://www.w3.org/2000/svg" d="m64.222656 512h-33.316406c-17.070312 0-30.90625-13.835938-30.90625-30.90625v-450.1875c0-17.070312 13.835938-30.90625 30.90625-30.90625h33.316406c-17.070312 0-30.90625 13.835938-30.90625 30.90625v450.1875c0 17.070312 13.835938 30.90625 30.90625 30.90625zm0 0" fill="#900d0f" data-original="#439ef4" style="" class=""/>
    <path xmlns="http://www.w3.org/2000/svg" d="m512 30.90625v450.1875c0 17.070312-13.835938 30.90625-30.90625 30.90625h-199.03125c152.582031-175.789062 169.96875-420.992188 170.824219-512h28.207031c17.070312 0 30.90625 13.835938 30.90625 30.90625zm0 0" fill="#670a0b" data-original="#4c60dc" style="" class=""/>
    <path xmlns="http://www.w3.org/2000/svg" d="m292.273438 203.28125v43.351562h64.355468c6.457032 0 11.699219 5.242188 11.699219 11.703126v49.140624c0 6.460938-5.242187 11.703126-11.699219 11.703126h-64.355468v192.820312h-72.546876v-192.820312h-64.355468c-6.457032 0-11.699219-5.242188-11.699219-11.703126v-49.140624c0-6.460938 5.242187-11.703126 11.699219-11.703126h64.355468v-50.511718c0-57.265625 46.417969-103.695313 103.695313-103.695313h33.207031c6.457032 0 11.699219 5.242188 11.699219 11.703125v49.140625c0 6.472657-5.242187 11.703125-11.699219 11.703125h-26.046875c-21.15625 0-38.308593 17.152344-38.308593 38.308594zm0 0" fill="#deefff" data-original="#deefff" style="" class=""/>
  </g>
</svg>
