<?xml version="1.0" encoding="UTF-8"?>
<svg xmlns="http://www.w3.org/2000/svg" xmlns:xlink="http://www.w3.org/1999/xlink" xmlns:svgjs="http://svgjs.com/svgjs" version="1.1" width="512" height="512" x="0" y="0" viewBox="0 0 512 512" style="enable-background:new 0 0 512 512" xml:space="preserve" class="">
  <g>
    <path xmlns="http://www.w3.org/2000/svg" d="m512 138.597656v234.804688c0 76.421875-62.175781 138.597656-138.597656 138.597656h-234.804688c-76.421875 0-138.597656-62.175781-138.597656-138.597656v-234.804688c0-76.421875 62.175781-138.597656 138.597656-138.597656h234.804688c76.421875 0 138.597656 62.175781 138.597656 138.597656zm0 0" fill="#ce1315" data-original="#ff5e95" style="" class=""/>
    <path xmlns="http://www.w3.org/2000/svg" d="m512 138.597656v234.804688c0 76.421875-62.175781 138.597656-138.597656 138.597656h-117.261719v-512h117.261719c76.421875 0 138.597656 62.175781 138.597656 138.597656zm0 0" fill="#900d0f" data-original="#ff3980" style="" class=""/>
    <path xmlns="http://www.w3.org/2000/svg" d="m256 116.003906c-77.191406 0-139.996094 62.804688-139.996094 139.996094s62.804688 139.996094 139.996094 139.996094 139.996094-62.804688 139.996094-139.996094-62.804688-139.996094-139.996094-139.996094zm0 249.976563c-60.644531 0-109.980469-49.335938-109.980469-109.980469s49.335938-109.980469 109.980469-109.980469 109.980469 49.335938 109.980469 109.980469-49.335938 109.980469-109.980469 109.980469zm0 0" fill="#ffffff" data-original="#ffffff" style="" class=""/>
    <g xmlns="http://www.w3.org/2000/svg" fill="#96fff6">
      <path d="m399.34375 66.285156c-22.808594 0-41.367188 18.554688-41.367188 41.367188s18.558594 41.371094 41.367188 41.371094c22.8125 0 41.371094-18.558594 41.371094-41.371094s-18.558594-41.367188-41.371094-41.367188zm0 0" fill="#e9e9e9" data-original="#96fff6" style="" class=""/>
      <path d="m395.996094 256c0 77.191406-62.804688 139.996094-139.996094 139.996094v-30.015625c60.644531 0 109.980469-49.335938 109.980469-109.980469s-49.335938-109.980469-109.980469-109.980469v-30.015625c77.191406 0 139.996094 62.804688 139.996094 139.996094zm0 0" fill="#e9e9e9" data-original="#96fff6" style="" class=""/>
    </g>
  </g>
</svg>
