<?xml version="1.0" encoding="UTF-8"?>
<svg xmlns="http://www.w3.org/2000/svg" xmlns:xlink="http://www.w3.org/1999/xlink" xmlns:svgjs="http://svgjs.com/svgjs" version="1.1" width="512" height="512" x="0" y="0" viewBox="0 0 64 64" style="enable-background:new 0 0 512 512" xml:space="preserve" class="">
  <g>
    <g xmlns="http://www.w3.org/2000/svg" id="_10-LinkedIn" data-name="10-LinkedIn">
      <rect fill="#670a0b" height="62" rx="6" width="62" x="1" y="1" data-original="#0281c7" style="" class=""/>
      <path d="m57 1h-50a6 6 0 0 0 -6 6v10a22 22 0 0 0 22 22h18a22 22 0 0 0 22-22v-10a6 6 0 0 0 -6-6z" fill="#900d0f" data-original="#0291e0" style="" class=""/>
      <path d="m57 1h-50a6 6 0 0 0 -6 6v4a6 6 0 0 1 6-6h50a6 6 0 0 1 6 6v-4a6 6 0 0 0 -6-6z" fill="#900d0f" data-original="#0aa8ff" style="" class=""/>
      <path d="m57 59h-50a6 6 0 0 1 -6-6v4a6 6 0 0 0 6 6h50a6 6 0 0 0 6-6v-4a6 6 0 0 1 -6 6z" fill="#290404" data-original="#005a8c" style="" class=""/>
      <path d="m54 34v16h-8v-17c0-2.21-2-4-6-4s-6 1.79-6 4v17h-8v-28h8v.95a18.069 18.069 0 0 1 6-.95 15.159 15.159 0 0 1 10 3.51 11.186 11.186 0 0 1 4 8.49z" fill="#ffffff" data-original="#ffffff" style="" class=""/>
      <path d="m10 22h8v28h-8z" fill="#ffffff" data-original="#ffffff" style="" class=""/>
      <circle cx="14" cy="14" fill="#ffffff" r="4" data-original="#ffffff" style="" class=""/>
      <g fill="#005a8c">
        <path d="m40 29c-4 0-6 1.79-6 4v3c0-2.21 2-4 6-4s6 1.79 6 4v-3c0-2.21-2-4-6-4z" fill="#290404" data-original="#005a8c" style="" class=""/>
        <path d="m46 50h8v3h-8z" fill="#290404" data-original="#005a8c" style="" class=""/>
        <path d="m26 50h8v3h-8z" fill="#290404" data-original="#005a8c" style="" class=""/>
        <path d="m10 50h8v3h-8z" fill="#290404" data-original="#005a8c" style="" class=""/>
        <path d="m14 18a4 4 0 0 1 -3.7-2.5 4 4 0 1 0 7.406 0 4 4 0 0 1 -3.706 2.5z" fill="#290404" data-original="#005a8c" style="" class=""/>
      </g>
    </g>
  </g>
</svg>
