<?xml version="1.0" encoding="UTF-8"?>
<svg xmlns="http://www.w3.org/2000/svg" xmlns:xlink="http://www.w3.org/1999/xlink" xmlns:svgjs="http://svgjs.com/svgjs" version="1.1" width="512" height="512" x="0" y="0" viewBox="0 0 152 152" style="enable-background:new 0 0 512 512" xml:space="preserve" class="">
  <g>
    <g xmlns="http://www.w3.org/2000/svg" id="Layer_2" data-name="Layer 2">
      <g id="Black_And_White" data-name="Black And White">
        <g id="_09.9" data-name="09.9">
          <path d="m82.63 53.48q2.5 3.57 2.51 11.06v4a8.54 8.54 0 0 1 -8.33 8.6h-.12a8.4 8.4 0 0 1 -7.16-3.61q-2.61-3.61-2.61-9.7a18 18 0 0 1 2.56-9.83q2.52-4.1 6.36-4.11a7.89 7.89 0 0 1 6.79 3.59z" fill="#ce1315" data-original="#000000" style="" class=""/>
          <path d="m140 0h-128a12 12 0 0 0 -12 12v128a12 12 0 0 0 12 12h128a12 12 0 0 0 12-12v-128a12 12 0 0 0 -12-12zm-36.85 74.05q0 12.89-5.05 22.34a34.9 34.9 0 0 1 -14.4 14.53q-9.36 5.08-21.81 5.08h-1.12v-14.43h3.42q18.6-.92 20.68-16.68a19 19 0 0 1 -13 5.24q-10.57 0-16.78-7.16t-6.2-19.13a28.7 28.7 0 0 1 3.48-13.9 26 26 0 0 1 9.75-10.15 26.61 26.61 0 0 1 13.88-3.79 25.83 25.83 0 0 1 13.92 3.87 26.18 26.18 0 0 1 9.7 11 37.69 37.69 0 0 1 3.58 16.33z" fill="#ce1315" data-original="#000000" style="" class=""/>
        </g>
      </g>
    </g>
  </g>
</svg>
