<?xml version="1.0" encoding="UTF-8"?>
<svg xmlns="http://www.w3.org/2000/svg" xmlns:xlink="http://www.w3.org/1999/xlink" xmlns:svgjs="http://svgjs.com/svgjs" version="1.1" width="512" height="512" x="0" y="0" viewBox="0 0 512.46397 512" style="enable-background:new 0 0 512 512" xml:space="preserve" class="">
  <g>
    <path xmlns="http://www.w3.org/2000/svg" d="m226.007812 267.28125c-84.425781 14.640625-146.675781 87.003906-148.535156 172.671875 26.695313 26.050781 58.765625 45.949219 93.960938 58.3125-35.835938-80.507813-13.503906-175.03125 54.574218-230.984375zm0 0" fill="#ce1315" data-original="#2688ff" style="" class=""/>
    <path xmlns="http://www.w3.org/2000/svg" d="m235.367188 281.207031c-65.710938 54.890625-83.375 148.613281-42.152344 223.65625 36.117187 9.136719 73.792968 10.292969 110.402344 3.386719-71.167969-51.757812-99.085938-144.625-68.25-227.042969zm0 0" fill="#ffffff" data-original="#6d2c93" style="" class=""/>
    <path xmlns="http://www.w3.org/2000/svg" d="m245.472656 226.601562c-14.480468-84.59375-86.910156-147.042968-172.710937-148.921874-26.019531 26.671874-45.910157 58.695312-58.28125 93.839843 80.589843-36.023437 175.328125-13.433593 230.992187 55.082031zm0 0" fill="#ffffff" data-original="#6d2c93" style="" class=""/>
    <path xmlns="http://www.w3.org/2000/svg" d="m224.433594 250.769531c-80.371094-29.792969-170.570313 1.785157-214.808594 75.199219 10.117188 35.875 27.960938 69.105469 52.277344 97.359375 9.265625-87.5 75.742187-158.078125 162.53125-172.558594zm0 0" fill="#ffffff" data-original="#6d2c93" style="" class=""/>
    <path xmlns="http://www.w3.org/2000/svg" d="m250.558594 288.265625c-29.496094 80.367187 2.015625 170.378906 75.203125 214.796875 35.863281-10.097656 69.085937-27.914062 97.34375-52.199219-87.515625-9.277343-158.09375-75.789062-172.546875-162.597656zm0 0" fill="#ce1315" data-original="#2688ff" style="" class=""/>
    <path xmlns="http://www.w3.org/2000/svg" d="m418.632812 358.441406c-17.179687-.015625-34.28125-2.28125-50.871093-6.738281-39.675781-10.554687-74.972657-33.4375-100.800781-65.351563 14.484374 84.597657 86.917968 147.042969 172.726562 148.914063 26.054688-26.703125 45.960938-58.769531 58.335938-93.960937-24.957032 11.253906-52.015626 17.09375-79.390626 17.136718zm0 0" fill="#ffffff" data-original="#6d2c93" style="" class=""/>
    <path xmlns="http://www.w3.org/2000/svg" d="m140.40625 177.191406c-44.621094-12.023437-92.171875-6.199218-132.574219 16.242188-9.128906 36.089844-10.292969 73.738281-3.40625 110.328125 51.71875-71.269531 144.710938-99.148438 227.109375-68.097657-23.542968-28.507812-55.402344-48.949218-91.128906-58.472656zm0 0" fill="#ce1315" data-original="#2688ff" style="" class=""/>
    <path xmlns="http://www.w3.org/2000/svg" d="m282.945312 112.273438c10.6875 39.433593 8.644532 81.234374-5.832031 119.4375 65.691407-54.894532 83.347657-148.609376 42.132813-223.648438-36.097656-9.132812-73.753906-10.292969-110.351563-3.398438 36.375 26.238282 62.539063 64.261719 74.050781 107.609376zm0 0" fill="#ffffff" data-original="#6d2c93" style="" class=""/>
    <g xmlns="http://www.w3.org/2000/svg" fill="#2688ff">
      <path d="m261.929688 224.71875c29.792968-80.402344-1.828126-170.632812-75.296876-214.847656-35.84375 10.121094-69.046874 27.949218-97.28125 52.242187 87.527344 9.265625 158.125 75.785157 172.578126 162.605469zm0 0" fill="#ce1315" data-original="#2688ff" style="" class=""/>
      <path d="m372.0625 335.734375c44.621094 12.019531 92.167969 6.195313 132.570312-16.238281 9.132813-36.097656 10.292969-73.753906 3.398438-110.34375-26.234375 36.351562-64.242188 62.503906-107.566406 74.015625-16.621094 4.480469-33.761719 6.753906-50.976563 6.769531-23.460937-.039062-46.71875-4.347656-68.632812-12.722656 23.554687 28.542968 55.445312 49.003906 91.207031 58.519531zm0 0" fill="#ce1315" data-original="#2688ff" style="" class=""/>
      <path d="m286.441406 245.65625c84.4375-14.628906 146.703125-86.996094 148.566406-172.671875-26.707031-26.050781-58.777343-45.953125-93.976562-58.320313 35.84375 80.511719 13.503906 175.046876-54.589844 230.992188zm0 0" fill="#ce1315" data-original="#2688ff" style="" class=""/>
    </g>
    <path xmlns="http://www.w3.org/2000/svg" d="m288.039062 262.167969c80.390626 29.765625 170.585938-1.855469 214.792969-75.304688-10.121093-35.863281-27.957031-69.082031-52.265625-97.328125-9.226562 87.527344-75.714844 158.148438-162.527344 172.632813zm0 0" fill="#ffffff" data-original="#6d2c93" style="" class=""/>
  </g>
</svg>
